<?xml version="1.0" standalone="no"?>
<!DOCTYPE svg PUBLIC "-//W3C//DTD SVG 20010904//EN"
 "http://www.w3.org/TR/2001/REC-SVG-20010904/DTD/svg10.dtd">
<svg version="1.0" xmlns="http://www.w3.org/2000/svg"
 width="800.000000pt" height="755.000000pt" viewBox="0 0 800.000000 755.000000"
 preserveAspectRatio="xMidYMid meet">

<g transform="translate(0.000000,755.000000) scale(0.100000,-0.100000)"
fill="#000000" stroke="none">
<path d="M1444 6989 c-60 -14 -113 -64 -125 -118 -11 -51 2 -139 29 -184 27
-47 44 -44 21 3 -21 44 -22 81 -2 87 6 2 14 -5 18 -16 12 -39 35 -24 35 22 0
74 62 113 168 106 36 -3 52 0 52 8 0 24 -62 83 -98 93 -42 11 -42 11 -98 -1z"/>
<path d="M1505 6790 c-15 -6 -7 -9 30 -9 37 0 45 3 30 9 -11 5 -24 9 -30 9 -5
0 -19 -4 -30 -9z"/>
<path d="M1610 6790 c-11 -7 -6 -10 20 -10 26 0 31 3 20 10 -8 5 -17 10 -20
10 -3 0 -12 -5 -20 -10z"/>
<path d="M5810 6511 c-63 -37 -239 -139 -390 -226 -414 -239 -628 -363 -697
-406 -34 -22 -66 -39 -70 -39 -10 -1 -43 -29 -60 -51 -10 -13 -10 -16 3 -16 9
0 20 11 25 24 7 20 11 22 23 11 12 -11 11 -14 -5 -20 -19 -7 -27 -28 -11 -28
5 0 9 -7 9 -15 0 -21 -17 -19 -17 3 -1 12 -5 10 -15 -10 -8 -15 -24 -29 -35
-33 -11 -3 -20 -14 -19 -23 0 -11 3 -12 6 -4 2 6 11 12 19 12 8 0 14 5 14 11
0 5 5 7 10 4 6 -4 9 -1 8 7 -2 7 3 12 10 10 21 -4 73 28 66 40 -4 7 -3 8 4 4
6 -4 31 3 54 15 38 19 471 267 838 479 69 40 198 115 287 166 90 52 171 94
180 94 11 0 -2 13 -29 30 -27 17 -58 30 -70 29 -13 0 -75 -31 -138 -68z"/>
<path d="M2650 6504 c-54 -23 -108 -82 -130 -141 -23 -61 -35 -150 -27 -185 6
-24 71 -68 99 -68 9 0 23 28 38 76 12 42 28 77 34 79 6 1 34 8 61 14 28 6 62
20 76 31 l27 19 12 -29 c7 -16 18 -34 26 -41 14 -11 16 -7 28 67 11 70 -28
145 -96 180 -35 18 -104 17 -148 -2z"/>
<path d="M1512 6457 c-26 -28 -27 -35 -6 -58 14 -16 17 -55 21 -266 5 -330 7
-345 42 -366 28 -17 29 -16 47 11 17 26 17 36 -12 312 -20 182 -28 296 -22
314 6 24 3 35 -14 53 -27 28 -29 28 -56 0z"/>
<path d="M5954 6375 l-41 -25 4 -1248 c2 -686 5 -1254 6 -1262 1 -8 22 66 47
165 l44 180 4 495 c4 558 -7 1720 -17 1720 -3 -1 -24 -12 -47 -25z"/>
<path d="M3542 6098 c-16 -16 -15 -28 2 -28 7 0 16 9 19 20 6 23 -3 26 -21 8z"/>
<path d="M3500 6057 c-8 -12 -13 -25 -12 -29 1 -5 -2 -8 -8 -8 -5 0 -10 -16
-10 -35 0 -19 4 -35 9 -35 4 0 7 12 4 28 -3 26 -3 26 8 5 7 -13 16 -23 21 -23
5 0 4 9 -2 19 -13 26 -13 64 2 79 6 6 10 14 7 16 -3 3 -11 -5 -19 -17z"/>
<path d="M3517 6043 c-4 -3 -7 -11 -7 -17 0 -6 5 -5 12 2 6 6 9 14 7 17 -3 3
-9 2 -12 -2z"/>
<path d="M3487 5939 c-23 -13 -17 -61 14 -121 27 -53 33 -48 7 6 -20 42 -20
46 -5 70 23 35 21 46 -3 17 -24 -28 -26 -20 -4 14 18 28 17 29 -9 14z"/>
<path d="M3520 5943 c0 -4 5 -15 10 -23 8 -13 10 -13 10 2 0 9 -4 20 -10 23
-5 3 -10 3 -10 -2z"/>
<path d="M2570 5824 c0 -3 18 -64 40 -136 23 -73 39 -140 38 -151 -2 -15 6
-23 35 -33 l37 -13 0 52 c0 29 7 95 15 147 8 52 15 100 15 106 0 7 -19 9 -53
6 -34 -3 -66 1 -90 11 -20 9 -37 14 -37 11z"/>
<path d="M4516 5754 c-17 -12 -17 -14 -4 -14 9 0 20 5 23 11 11 17 2 18 -19 3z"/>
<path d="M4454 5715 c-4 -8 -10 -13 -14 -10 -5 3 -59 -23 -121 -57 -84 -47
-118 -73 -138 -102 l-26 -40 2 -1790 c1 -985 5 -1800 7 -1811 4 -16 95 -83
100 -73 1 2 -2 496 -6 1098 -4 602 -7 1415 -5 1806 l2 710 27 42 c20 29 52 55
109 88 44 26 83 53 86 60 3 8 8 12 12 10 3 -2 15 3 26 11 16 13 17 15 3 10
-16 -6 -23 3 -19 26 1 9 -24 37 -34 37 -3 0 -8 -7 -11 -15z m21 -15 c3 -5 1
-10 -4 -10 -6 0 -11 5 -11 10 0 6 2 10 4 10 3 0 8 -4 11 -10z m-35 -14 c0 -3
-4 -8 -10 -11 -5 -3 -10 -1 -10 4 0 6 5 11 10 11 6 0 10 -2 10 -4z"/>
<path d="M4505 5720 c27 -12 43 -12 25 0 -8 5 -22 9 -30 9 -10 0 -8 -3 5 -9z"/>
<path d="M2130 5636 c0 -3 14 -18 30 -34 38 -38 40 -80 6 -102 -84 -54 -136
-92 -136 -100 0 -14 7 -12 27 4 52 43 114 86 123 86 43 0 -47 -106 -99 -116
-20 -4 -29 -10 -23 -16 14 -14 72 15 111 55 33 36 38 58 32 153 -1 29 -71 97
-71 70z"/>
<path d="M4929 5607 c-18 -12 -44 -38 -57 -57 l-24 -35 24 -3 c36 -6 45 -19
51 -75 3 -28 9 -73 13 -99 8 -56 -7 -64 -31 -18 -9 17 -20 30 -25 30 -21 0 -6
-29 67 -127 58 -78 66 -82 167 -75 27 2 28 1 22 -30 -4 -18 -19 -45 -34 -60
l-27 -28 -63 50 c-34 28 -62 59 -62 68 -1 14 -4 13 -19 -5 -18 -22 -18 -25 1
-115 11 -51 40 -145 65 -208 71 -182 71 -182 66 -39 -2 68 -9 134 -15 146 -8
17 -6 29 12 59 l23 37 24 -27 c16 -19 23 -40 23 -69 0 -23 9 -82 20 -131 11
-50 20 -101 21 -115 0 -25 1 -25 9 -4 5 12 12 82 16 155 5 109 3 148 -11 213
-10 44 -22 88 -26 97 -6 10 -5 19 1 23 5 3 14 23 20 44 11 43 1 85 -23 94 -29
11 -86 -13 -104 -43 -9 -17 -20 -30 -23 -29 -3 0 -17 15 -31 32 -20 25 -28 48
-33 103 -6 65 -5 72 12 76 23 6 40 74 23 91 -6 6 -11 30 -11 54 0 50 -11 54
-61 20z"/>
<path d="M1982 5586 c-10 -14 -27 -55 -36 -92 -27 -105 -56 -149 -100 -149
-12 0 -22 -8 -24 -17 -6 -30 31 -21 65 15 39 41 57 78 73 147 6 30 21 68 32
83 25 36 17 47 -10 13z"/>
<path d="M5155 5545 c-22 -14 -54 -28 -72 -31 -28 -5 -82 -48 -72 -58 2 -2 25
-1 52 4 44 6 99 42 94 60 -1 4 9 17 23 28 33 28 24 27 -25 -3z"/>
<path d="M5184 5522 c-7 -5 -3 -18 13 -41 l23 -34 0 42 c0 40 -11 50 -36 33z"/>
<path d="M3685 5510 c3 -5 -3 -18 -15 -30 -26 -26 -26 -56 0 -63 20 -5 28 -27
10 -27 -15 0 -12 -77 3 -84 10 -5 10 -7 0 -12 -7 -3 -13 -23 -13 -44 0 -22 5
-40 13 -43 9 -3 9 -7 -1 -20 -12 -14 -10 -24 12 -69 14 -29 30 -60 35 -68 5
-8 13 -26 19 -40 9 -24 10 -23 23 19 10 35 10 46 1 49 -17 5 -15 29 3 36 19 7
20 55 2 62 -9 3 -14 21 -13 52 1 57 -25 212 -35 206 -4 -2 -12 3 -18 10 -14
17 2 32 21 20 13 -8 3 12 -20 39 -16 18 -38 24 -27 7z m47 -172 c-15 -15 -26
-4 -18 18 5 13 9 15 18 6 9 -9 9 -15 0 -24z m8 -87 c0 -14 -18 -23 -30 -16 -6
4 -8 11 -5 16 8 12 35 12 35 0z m-5 -102 c10 -15 -1 -23 -20 -15 -9 3 -13 10
-10 16 8 13 22 13 30 -1z"/>
<path d="M2730 5455 c0 -38 3 -45 20 -45 17 0 20 7 20 45 0 38 -3 45 -20 45
-17 0 -20 -7 -20 -45z"/>
<path d="M1615 5424 c-15 -12 -43 -15 -110 -13 l-90 3 -22 -186 c-23 -200 -32
-227 -84 -250 -17 -7 -52 -42 -80 -77 -27 -35 -49 -60 -49 -55 -1 5 -2 61 -3
124 -2 130 -8 138 -68 98 -32 -22 -34 -27 -37 -88 -3 -78 -19 -97 -62 -75 -16
8 -36 23 -46 32 -10 10 -25 19 -33 19 -9 1 -44 18 -79 39 -46 28 -60 41 -50
47 9 6 6 7 -9 3 -19 -5 -23 -2 -23 15 0 17 -5 20 -27 18 -19 -2 -27 1 -25 10
1 8 -2 11 -8 7 -14 -8 -40 13 -40 32 0 8 4 12 9 9 5 -3 6 14 4 38 -3 26 -1 46
6 50 6 4 11 0 12 -11 0 -16 1 -16 9 2 14 33 12 55 -5 49 -8 -4 -15 -12 -15
-19 0 -7 -5 -15 -12 -17 -7 -3 -13 -32 -15 -74 -4 -67 -3 -71 22 -84 14 -7 25
-18 25 -23 0 -5 -11 -2 -25 7 l-25 16 0 -59 c0 -51 4 -64 26 -86 30 -30 96
-65 121 -64 11 0 6 5 -12 11 -16 6 -35 18 -41 26 -7 9 -16 12 -24 7 -8 -5 -11
-4 -6 3 3 6 -2 13 -13 17 -11 3 -25 13 -33 22 -12 15 -11 15 12 3 13 -7 83
-48 153 -92 159 -96 187 -99 187 -19 0 19 5 27 18 28 16 1 18 -6 14 -88 -4
-84 -3 -91 16 -95 11 -4 48 -50 88 -110 58 -89 74 -107 119 -131 49 -25 56
-26 94 -15 37 12 41 16 41 46 0 29 -8 41 -49 75 -35 29 -54 55 -65 88 l-16 46
57 69 c55 68 57 69 68 46 8 -15 17 -148 24 -368 7 -190 16 -349 19 -355 4 -5
7 -39 7 -75 l0 -65 60 -32 c32 -17 77 -46 98 -65 56 -48 104 -67 168 -68 60 0
89 18 89 56 0 27 -8 36 -75 81 -33 23 -83 65 -112 95 l-52 53 -4 440 c-3 401
-6 447 -24 521 l-20 81 24 59 c21 52 23 72 21 171 -3 110 -3 111 -23 97z
m-852 -404 c21 -1 117 -67 109 -75 -4 -5 -1 -5 5 -1 7 4 22 2 33 -4 13 -7 20
-7 20 0 0 5 5 10 11 10 7 0 9 -10 6 -26 -3 -16 0 -24 7 -21 18 7 50 -21 53
-47 2 -13 -4 -29 -13 -37 -14 -11 -21 -10 -48 5 -17 10 -47 27 -66 38 -19 11
-42 25 -50 32 -8 7 -27 18 -42 25 -15 8 -25 18 -22 23 8 13 26 9 18 -4 -4 -8
-3 -10 2 -5 5 5 9 12 9 15 0 4 4 13 8 20 5 6 -8 3 -27 -9 -22 -13 -36 -16 -36
-9 0 6 -4 9 -9 6 -4 -3 -16 3 -26 14 -10 11 -14 20 -9 21 5 0 0 4 -11 9 -18 8
-18 9 -2 9 24 1 52 -25 34 -32 -6 -3 6 -5 28 -5 22 0 32 2 23 5 -10 2 -18 9
-18 14 0 5 -5 9 -10 9 -6 0 -17 5 -24 12 -10 10 -9 16 8 33 l21 22 3 -24 c2
-13 9 -23 15 -23z"/>
<path d="M734 5015 c11 -8 24 -15 30 -15 5 0 1 7 -10 15 -10 8 -23 14 -29 14
-5 0 -1 -6 9 -14z"/>
<path d="M967 4841 c-4 -17 -3 -21 5 -13 5 5 8 16 6 23 -3 8 -7 3 -11 -10z"/>
<path d="M5030 5430 c-8 -5 -12 -11 -10 -13 10 -8 100 5 94 14 -7 12 -65 11
-84 -1z"/>
<path d="M5155 5430 c-4 -6 8 -10 29 -10 20 0 36 5 36 10 0 6 -13 10 -29 10
-17 0 -33 -4 -36 -10z"/>
<path d="M2675 5398 c-11 -6 -22 -15 -25 -19 -3 -4 -4 -86 -2 -183 l3 -176 34
0 35 0 0 195 c0 205 -1 208 -45 183z"/>
<path d="M806 5336 c-9 -33 -7 -74 4 -81 6 -4 10 10 10 34 0 25 4 40 11 39 20
-5 20 19 0 25 -14 3 -21 -1 -25 -17z"/>
<path d="M950 5292 c0 -6 5 -14 10 -17 6 -3 10 -33 10 -66 0 -33 4 -59 10 -59
6 0 10 26 10 58 0 46 -4 63 -20 77 -11 10 -20 13 -20 7z"/>
<path d="M677 5283 c-4 -3 -7 -15 -7 -27 0 -20 0 -20 15 0 8 10 15 22 15 27 0
9 -14 9 -23 0z"/>
<path d="M697 5131 c-3 -12 -1 -21 3 -21 14 0 19 15 11 29 -6 9 -10 7 -14 -8z"/>
<path d="M6316 4876 c-59 -22 -116 -83 -116 -123 0 -27 -4 -33 -22 -33 -41 0
-105 -47 -122 -90 -31 -77 -12 -140 60 -207 35 -33 44 -47 39 -63 -8 -24 -2
-25 19 -4 9 8 16 30 16 48 0 18 5 47 11 63 8 23 6 45 -5 91 -13 46 -14 67 -5
89 l11 28 16 -40 c8 -22 26 -55 38 -74 l23 -34 11 25 c10 20 9 31 -4 56 -21
40 -20 58 1 66 11 5 23 0 34 -15 l16 -21 20 33 c11 19 24 48 28 64 l7 30 14
-33 13 -33 73 3 73 3 -2 43 c-2 49 -31 95 -75 118 -43 22 -125 27 -172 10z"/>
<path d="M823 4835 c16 -9 31 -14 35 -11 8 9 0 14 -33 21 l-30 6 28 -16z"/>
<path d="M2290 4799 c0 -57 8 -61 17 -7 2 18 6 37 6 42 1 5 -4 11 -10 13 -9 3
-13 -10 -13 -48z"/>
<path d="M895 4800 c-3 -5 1 -10 10 -10 9 0 13 5 10 10 -3 6 -8 10 -10 10 -2
0 -7 -4 -10 -10z"/>
<path d="M2433 4779 c24 -18 27 -27 27 -75 0 -30 5 -54 10 -54 6 0 10 23 10
50 0 41 -5 56 -25 75 -13 14 -30 25 -37 25 -7 0 -1 -10 15 -21z"/>
<path d="M980 4753 c0 -5 12 -9 27 -10 19 -1 22 1 12 8 -17 11 -39 12 -39 2z"/>
<path d="M1010 4726 c0 -2 7 -7 16 -10 8 -3 12 -2 9 4 -6 10 -25 14 -25 6z"/>
<path d="M2150 4598 c0 -9 16 -26 35 -37 19 -12 51 -30 70 -42 19 -11 35 -16
35 -11 0 6 -26 25 -57 43 -32 17 -64 39 -70 47 -12 14 -13 14 -13 0z"/>
<path d="M5450 4548 c-221 -133 -761 -445 -855 -493 -79 -41 -125 -105 -125
-175 0 -52 18 -80 51 -80 16 0 19 -8 21 -47 1 -44 2 -45 5 -10 3 24 9 37 19
37 17 0 19 17 2 22 -10 4 154 108 170 108 3 0 13 6 21 14 18 16 550 323 646
373 33 17 79 42 102 55 l43 23 0 113 c0 61 -3 112 -7 112 -5 0 -46 -23 -93
-52z"/>
<path d="M2615 4574 c-45 -24 -55 -42 -55 -104 0 -55 -11 -80 -37 -80 -26 0
-175 94 -183 116 -9 24 -30 41 -30 25 0 -5 5 -13 10 -16 6 -3 10 -21 10 -38 0
-18 4 -27 8 -20 5 8 32 -3 92 -38 47 -27 95 -49 107 -49 22 0 23 -3 23 -94 0
-65 4 -96 12 -98 7 -3 31 7 55 20 l43 24 -2 181 c-2 109 -7 181 -13 183 -5 2
-23 -4 -40 -12z"/>
<path d="M6461 4364 c0 -11 3 -14 6 -6 3 7 2 16 -1 19 -3 4 -6 -2 -5 -13z"/>
<path d="M6470 4283 c0 -34 -42 -80 -70 -75 -11 2 -20 -5 -23 -19 -7 -25 -27
-16 -27 12 0 10 -5 19 -11 19 -7 0 -18 8 -26 18 -13 15 -13 15 -7 -8 3 -14 13
-35 20 -48 8 -12 12 -27 9 -32 -3 -5 4 -11 15 -15 22 -7 26 -20 10 -30 -18
-11 -11 -25 11 -22 28 3 37 -23 11 -30 -18 -4 -19 -8 -9 -41 6 -21 17 -41 24
-45 15 -9 18 -37 4 -37 -6 0 -9 -22 -9 -50 1 -27 5 -47 10 -44 16 10 30 -7 17
-22 -6 -7 -15 -11 -20 -8 -13 8 -11 -23 4 -47 10 -17 10 -23 0 -26 -8 -3 -13
-22 -13 -48 0 -35 4 -44 22 -48 18 -5 19 -8 9 -21 -8 -9 -17 -13 -22 -10 -13
8 -11 -23 4 -47 10 -17 10 -23 0 -26 -7 -3 -13 -17 -12 -31 0 -26 1 -26 9 -4
9 22 40 31 40 12 0 -5 15 -10 33 -10 l34 0 1 85 c1 69 -2 85 -13 85 -8 0 -15
7 -15 15 0 8 6 15 14 15 21 0 22 348 1 494 -16 111 -25 144 -25 89z m-16 -108
c-7 -17 -20 -20 -28 -6 -7 10 3 21 20 21 8 0 11 -6 8 -15z m-44 -31 c0 -8 -7
-14 -15 -14 -15 0 -21 21 -9 33 10 9 24 -2 24 -19z m65 -14 c3 -5 1 -10 -4
-10 -6 0 -11 5 -11 10 0 6 2 10 4 10 3 0 8 -4 11 -10z m-37 -34 c3 -12 -1 -17
-10 -14 -7 3 -15 13 -16 22 -3 12 1 17 10 14 7 -3 15 -13 16 -22z m32 -41 c0
-8 -7 -15 -15 -15 -8 0 -15 7 -15 15 0 8 7 15 15 15 8 0 15 -7 15 -15z m-45
-25 c3 -5 4 -14 0 -20 -8 -13 -35 -1 -35 16 0 16 26 19 35 4z m65 -25 c0 -8
-4 -15 -10 -15 -5 0 -10 7 -10 15 0 8 5 15 10 15 6 0 10 -7 10 -15z m-34 -16
c10 -17 -13 -36 -27 -22 -12 12 -4 33 11 33 5 0 12 -5 16 -11z m30 -50 c10
-17 -13 -36 -27 -22 -12 12 -4 33 11 33 5 0 12 -5 16 -11z m-46 -39 c0 -11 -7
-20 -15 -20 -8 0 -15 9 -15 20 0 11 7 20 15 20 8 0 15 -9 15 -20z m60 -16 c0
-8 -5 -12 -10 -9 -6 4 -8 11 -5 16 9 14 15 11 15 -7z m-32 -31 c-4 -22 -22
-20 -26 1 -2 10 3 16 13 16 10 0 15 -7 13 -17z m32 -49 c0 -8 -7 -14 -15 -14
-15 0 -21 21 -9 33 10 9 24 -2 24 -19z m-45 -25 c0 -7 -8 -15 -17 -17 -18 -3
-25 18 -11 32 10 10 28 1 28 -15z m31 -40 c10 -17 -13 -36 -27 -22 -12 12 -4
33 11 33 5 0 12 -5 16 -11z m-46 -33 c0 -8 -5 -18 -11 -22 -14 -8 -33 11 -25
25 10 16 36 13 36 -3z m30 -51 c0 -8 -6 -15 -14 -15 -17 0 -28 14 -19 24 12
12 33 6 33 -9z m26 -36 c10 -17 -13 -36 -27 -22 -12 12 -4 33 11 33 5 0 12 -5
16 -11z m-42 -50 c-8 -14 -34 -11 -34 4 0 8 3 17 7 20 9 9 34 -13 27 -24z m30
-27 c8 -13 -11 -35 -23 -28 -16 10 -14 36 3 36 8 0 17 -4 20 -8z"/>
<path d="M3195 4020 c2 -27 15 -38 15 -12 0 11 -4 23 -8 26 -5 3 -8 -4 -7 -14z"/>
<path d="M3755 3958 c-9 -29 -52 -69 -87 -80 -11 -4 -17 -434 -7 -572 6 -93
18 -106 91 -106 28 0 74 -11 112 -26 58 -23 71 -25 133 -17 64 7 68 10 68 33
0 21 -13 32 -85 70 -47 25 -105 58 -129 75 l-44 30 7 199 c6 176 15 284 31
379 4 24 2 27 -25 27 -16 0 -32 5 -35 10 -11 18 -21 11 -30 -22z"/>
<path d="M3392 3895 c0 -16 2 -22 5 -12 2 9 2 23 0 30 -3 6 -5 -1 -5 -18z"/>
<path d="M3603 3760 c0 -25 2 -35 4 -22 2 12 2 32 0 45 -2 12 -4 2 -4 -23z"/>
<path d="M4688 3728 c7 -7 12 -36 12 -64 0 -29 5 -56 10 -59 6 -4 10 16 10 52
0 56 -11 83 -34 83 -6 0 -5 -5 2 -12z"/>
<path d="M3400 3700 c0 -5 -7 -49 -15 -97 -21 -125 -39 -412 -26 -426 6 -8 6
-29 1 -57 -13 -67 -13 -67 33 -114 23 -24 52 -58 65 -75 22 -29 98 -71 129
-71 29 0 81 32 86 52 5 16 -9 36 -53 82 -38 40 -65 80 -79 114 l-20 54 30 246
c16 136 29 253 29 260 0 10 -7 9 -29 -4 -28 -16 -30 -16 -83 15 -60 34 -68 36
-68 21z"/>
<path d="M3547 3699 c7 -7 15 -10 18 -7 3 3 -2 9 -12 12 -14 6 -15 5 -6 -5z"/>
<path d="M3590 3700 c-9 -6 -10 -10 -3 -10 6 0 15 5 18 10 8 12 4 12 -15 0z"/>
<path d="M2702 3665 c-13 -28 -16 -105 -6 -142 9 -33 30 -28 38 9 l6 31 35
-40 c46 -54 89 -73 162 -72 139 3 156 27 55 81 -38 21 -90 59 -116 85 -26 27
-44 40 -40 31 9 -25 -5 -22 -59 12 -26 17 -51 30 -56 30 -4 0 -13 -11 -19 -25z"/>
<path d="M6692 3561 c-108 -63 -112 -66 -88 -77 40 -16 12 -34 -51 -34 -29 0
-53 -3 -53 -7 0 -5 25 -21 55 -38 44 -23 52 -31 39 -38 -13 -8 -14 -11 -3 -18
7 -4 19 -3 26 2 9 8 30 1 73 -22 l62 -33 60 33 c115 64 283 166 286 175 2 5
-19 22 -47 37 -28 16 -51 25 -51 19 0 -18 -40 -11 -78 15 -20 14 -44 25 -52
25 -9 0 -25 7 -36 15 -10 8 -21 14 -24 14 -3 -1 -56 -31 -118 -68z"/>
<path d="M4390 3563 c0 -16 56 -63 75 -63 13 0 3 19 -13 24 -10 4 -28 15 -40
27 -12 11 -22 16 -22 12z"/>
<path d="M5922 3460 l3 -102 37 -21 c20 -12 40 -18 45 -14 4 5 9 50 11 100 l3
92 -43 19 c-24 11 -47 22 -51 24 -4 2 -6 -42 -5 -98z"/>
<path d="M2439 3513 c-14 -37 -8 -175 9 -181 7 -2 12 7 12 25 1 26 1 26 12 8
17 -32 61 -76 90 -91 15 -8 56 -14 93 -14 87 0 93 15 33 78 -24 26 -57 72 -72
102 -33 63 -47 82 -39 51 8 -33 -23 -27 -73 14 -23 19 -45 35 -48 35 -4 0 -11
-12 -17 -27z"/>
<path d="M4855 3524 c-45 -24 -55 -42 -55 -105 0 -75 -14 -87 -68 -60 -22 11
-42 26 -45 33 -3 7 -6 4 -6 -7 -1 -12 11 -27 30 -37 25 -15 30 -23 27 -50 -5
-58 -19 -54 -230 77 -49 29 -88 48 -88 42 1 -12 268 -179 297 -185 23 -6 43
19 43 53 0 24 5 34 20 38 19 5 20 0 20 -90 0 -52 -4 -92 -9 -89 -16 10 -25
-57 -49 -374 l-7 -95 -65 -36 c-36 -20 -95 -53 -133 -73 -37 -20 -96 -54 -130
-75 l-62 -38 -3 -57 c-2 -35 1 -57 7 -55 5 2 133 76 285 164 162 94 274 165
271 172 -2 7 2 10 10 7 21 -9 40 6 24 18 -11 7 -9 8 4 4 23 -8 60 11 51 26 -5
7 -2 9 8 5 12 -4 14 -1 11 14 -6 20 -23 26 -23 8 0 -7 -9 -9 -24 -5 -20 5 -23
3 -19 -14 4 -14 0 -20 -11 -20 -10 0 -13 6 -10 15 5 11 2 13 -10 9 -20 -8 -21
15 -1 30 11 8 22 70 40 231 14 121 30 247 35 280 16 96 16 95 -35 95 l-44 0
-3 77 c-2 42 -7 78 -13 79 -5 2 -23 -4 -40 -12z m37 -802 c-7 -2 -9 -9 -6 -14
4 -7 2 -8 -4 -4 -6 4 -9 13 -5 21 4 11 1 13 -11 9 -9 -3 -16 -9 -16 -13 0 -9
-60 -34 -67 -27 -4 3 0 6 8 6 8 1 32 14 54 29 35 26 41 27 49 13 6 -10 5 -17
-2 -20z m83 8 c3 -5 1 -10 -4 -10 -6 0 -11 5 -11 10 0 6 2 10 4 10 3 0 8 -4
11 -10z m-105 -54 c0 -3 -4 -8 -10 -11 -5 -3 -10 -1 -10 4 0 6 5 11 10 11 6 0
10 -2 10 -4z"/>
<path d="M4488 3499 c2 -16 8 -29 12 -29 5 0 40 -19 80 -41 39 -23 73 -39 76
-36 4 4 -51 42 -123 83 -18 10 -33 24 -33 31 0 6 -4 14 -8 17 -5 3 -6 -8 -4
-25z"/>
<path d="M7094 3475 c-10 -8 -14 -15 -8 -15 6 0 17 7 24 15 16 19 9 19 -16 0z"/>
<path d="M5155 3459 c-11 -35 -43 -67 -75 -74 -27 -6 -27 -8 -33 -103 -11
-160 -8 -422 4 -422 6 0 41 18 78 40 66 38 68 41 75 86 3 26 6 95 6 153 0 58
7 151 15 206 8 55 15 103 15 108 0 4 -13 7 -28 7 -15 0 -33 5 -39 11 -8 8 -13
5 -18 -12z"/>
<path d="M6456 3403 c-3 -4 -1 -12 5 -19 13 -16 -28 -31 -44 -15 -14 14 -47
14 -47 1 0 -6 8 -10 18 -8 10 2 17 -3 17 -12 0 -8 -9 -15 -20 -15 -13 0 -21
-8 -23 -22 -2 -16 2 -23 12 -23 10 0 16 -9 16 -21 0 -16 -5 -20 -20 -16 -26 7
-28 -30 -2 -49 16 -13 16 -14 -5 -20 -25 -7 -30 -33 -10 -53 10 -10 9 -15 -5
-25 -20 -15 -24 -41 -7 -51 7 -5 5 -13 -7 -26 -11 -12 -14 -26 -10 -45 4 -16
3 -30 -4 -34 -6 -4 -13 -24 -15 -46 -2 -21 -5 -50 -7 -64 -3 -23 0 -25 35 -24
20 1 46 9 56 18 13 11 21 14 26 7 11 -18 23 -12 18 9 -4 16 0 20 17 20 16 0
20 -4 16 -15 -3 -8 -2 -15 3 -15 16 0 80 30 86 40 3 5 15 10 26 10 10 0 19 5
19 11 0 5 14 15 30 20 36 13 36 14 9 104 -11 39 -34 119 -51 178 -23 79 -34
107 -44 103 -8 -3 -14 1 -14 9 0 24 28 17 100 -25 52 -32 74 -39 94 -34 14 3
29 10 32 15 3 5 -5 5 -18 0 -30 -11 -33 -9 -164 70 -62 37 -115 65 -118 62z
m27 -60 c9 -9 -13 -34 -24 -27 -14 8 -11 34 4 34 8 0 17 -3 20 -7z m-47 -34
c10 -17 -13 -36 -27 -22 -12 12 -4 33 11 33 5 0 12 -5 16 -11z m74 -24 c0 -8
-7 -15 -15 -15 -8 0 -15 7 -15 15 0 8 7 15 15 15 8 0 15 -7 15 -15z m-40 -31
c0 -17 -26 -19 -36 -3 -7 12 15 31 28 23 4 -3 8 -12 8 -20z m70 -8 c0 -8 -4
-17 -9 -21 -12 -7 -24 12 -16 25 9 15 25 12 25 -4z m-120 -21 c0 -8 -6 -15
-14 -15 -17 0 -28 14 -19 24 12 12 33 6 33 -9z m76 -6 c10 -17 -13 -36 -27
-22 -12 12 -4 33 11 33 5 0 12 -5 16 -11z m65 -32 c-13 -13 -26 -3 -16 12 3 6
11 8 17 5 6 -4 6 -10 -1 -17z m-111 -7 c0 -11 -6 -20 -13 -20 -19 0 -27 10
-20 26 8 21 33 17 33 -6z m76 -11 c3 -6 2 -15 -2 -19 -12 -12 -38 5 -30 19 9
14 23 14 32 0z m-120 -10 c10 -17 -13 -36 -27 -22 -12 12 -4 33 11 33 5 0 12
-5 16 -11z m72 -26 c-4 -22 -22 -20 -26 1 -2 10 3 16 13 16 10 0 15 -7 13 -17z
m82 -19 c0 -9 -7 -14 -17 -12 -25 5 -28 28 -4 28 12 0 21 -6 21 -16z m-125
-14 c0 -22 -29 -18 -33 3 -3 14 1 18 15 15 10 -2 18 -10 18 -18z m75 -16 c0
-8 -7 -14 -15 -14 -15 0 -21 21 -9 33 10 9 24 -2 24 -19z m-120 -8 c0 -8 -5
-18 -11 -22 -14 -8 -33 11 -25 25 10 16 36 13 36 -3z m191 -1 c5 4 6 -1 3 -9
-9 -24 -24 -19 -23 7 0 12 3 16 6 9 2 -6 9 -10 14 -7z m-111 -20 c0 -8 -9 -15
-20 -15 -11 0 -20 7 -20 15 0 8 9 15 20 15 11 0 20 -7 20 -15z m70 -15 c0 -11
-7 -20 -15 -20 -8 0 -15 9 -15 20 0 11 7 20 15 20 8 0 15 -9 15 -20z m-120
-15 c0 -8 -6 -15 -14 -15 -17 0 -28 14 -19 24 12 12 33 6 33 -9z m187 0 c0 -8
-4 -15 -9 -15 -4 0 -8 7 -8 15 0 8 4 15 8 15 5 0 9 -7 9 -15z m-111 -6 c10
-17 -13 -36 -27 -22 -12 12 -4 33 11 33 5 0 12 -5 16 -11z m-123 -24 c1 -5 -6
-11 -15 -13 -11 -2 -18 3 -18 13 0 17 30 18 33 0z m197 0 c0 -8 -7 -15 -15
-15 -8 0 -15 7 -15 15 0 8 7 15 15 15 8 0 15 -7 15 -15z m-122 -18 c2 -10 -3
-17 -12 -17 -18 0 -29 16 -21 31 9 14 29 6 33 -14z m77 -17 c0 -22 -29 -18
-33 3 -3 14 1 18 15 15 10 -2 18 -10 18 -18z m-120 -11 c0 -7 -8 -15 -17 -17
-18 -3 -25 18 -11 32 10 10 28 1 28 -15z m195 -5 c0 -8 -7 -14 -15 -14 -15 0
-21 21 -9 33 10 9 24 -2 24 -19z m-122 -11 c-4 -22 -22 -20 -26 1 -2 10 3 16
13 16 10 0 15 -7 13 -17z m-122 -4 c10 -17 -13 -36 -27 -22 -12 12 -4 33 11
33 5 0 12 -5 16 -11z m199 -10 c0 -7 -8 -15 -17 -17 -18 -3 -25 18 -11 32 10
10 28 1 28 -15z m-122 -6 c9 -9 -13 -34 -24 -27 -14 8 -11 34 4 34 8 0 17 -3
20 -7z m77 -29 c0 -14 -21 -19 -33 -7 -9 9 13 34 24 27 5 -3 9 -12 9 -20z
m-120 -8 c0 -8 -5 -18 -11 -22 -14 -8 -33 11 -25 25 10 16 36 13 36 -3z m-52
-33 c-4 -22 -22 -20 -26 1 -2 10 3 16 13 16 10 0 15 -7 13 -17z"/>
<path d="M6915 3370 c-3 -6 1 -7 9 -4 18 7 21 14 7 14 -6 0 -13 -4 -16 -10z"/>
<path d="M6835 3325 c-22 -14 -35 -25 -30 -25 6 1 28 12 50 25 22 14 36 25 30
25 -5 -1 -28 -12 -50 -25z"/>
<path d="M4945 2790 c-3 -5 -1 -10 4 -10 6 0 11 5 11 10 0 6 -2 10 -4 10 -3 0
-8 -4 -11 -10z"/>
</g>
</svg>
