<?xml version="1.0" standalone="no"?>
<!DOCTYPE svg PUBLIC "-//W3C//DTD SVG 20010904//EN"
 "http://www.w3.org/TR/2001/REC-SVG-20010904/DTD/svg10.dtd">
<svg version="1.0" xmlns="http://www.w3.org/2000/svg"
 width="626.000000pt" height="500.000000pt" viewBox="0 0 626.000000 500.000000"
 preserveAspectRatio="xMidYMid meet">

<g transform="translate(0.000000,500.000000) scale(0.100000,-0.100000)"
fill="#000000" stroke="none">
<path d="M2166 3884 c-3 -9 -6 -102 -6 -208 0 -173 2 -195 18 -209 14 -13 44
-17 131 -19 l112 -3 -46 -65 c-25 -36 -79 -112 -119 -170 l-72 -105 -41 3
c-24 2 -55 -3 -73 -13 -17 -9 -36 -13 -43 -8 -7 4 -87 60 -179 126 l-168 119
0 108 c0 62 -4 111 -10 115 -7 4 -10 -64 -10 -197 0 -145 -3 -207 -12 -216 -9
-9 -78 -12 -251 -12 -156 0 -236 -3 -232 -10 9 -15 488 -13 503 2 8 8 12 45
12 100 0 82 1 88 18 78 9 -5 86 -61 171 -122 l154 -113 2 -50 c1 -27 4 -58 6
-67 3 -11 -55 -81 -166 -202 -93 -101 -173 -185 -177 -185 -5 -1 -8 14 -8 33
0 19 -4 38 -10 41 -7 4 -10 -63 -10 -193 0 -180 -2 -200 -18 -215 -16 -15 -49
-17 -253 -17 -155 0 -229 -4 -219 -10 9 -6 114 -10 247 -10 197 0 234 2 247
16 13 13 16 43 16 167 l0 152 186 198 186 197 37 -6 c20 -4 39 -9 43 -13 3 -3
36 -136 73 -296 36 -159 74 -324 85 -365 10 -41 21 -87 24 -102 l6 -28 -89 0
c-132 0 -128 8 -135 -230 -5 -164 -4 -199 9 -215 13 -18 14 2 15 186 0 177 2
208 16 220 12 10 77 13 290 14 222 0 271 2 257 13 -12 8 -65 12 -180 12 -160
0 -163 0 -168 23 -3 12 -45 191 -94 397 l-87 375 33 31 c26 25 33 39 33 70 0
22 -6 49 -14 60 -14 19 -9 30 72 145 48 69 104 151 126 182 l38 57 147 0 c80
0 153 5 161 10 10 6 -80 10 -262 10 l-278 0 -15 24 c-13 20 -15 55 -13 215 3
178 -1 215 -16 175z m-1 -829 c30 -29 32 -58 5 -85 -38 -38 -103 -21 -115 32
-5 21 -1 33 19 52 32 33 60 33 91 1z"/>
<path d="M3334 3759 c-53 -20 -127 -77 -145 -111 -10 -19 -9 -20 7 -13 83 36
183 65 260 76 86 12 92 14 102 41 l10 28 -91 -1 c-66 0 -106 -6 -143 -20z"/>
<path d="M2665 3745 c-22 -10 -32 -10 -38 -2 -6 9 -10 9 -14 0 -2 -7 -9 -13
-14 -13 -6 0 -7 5 -3 11 4 7 1 10 -6 7 -45 -15 -33 -74 22 -108 36 -22 53 -26
43 -10 -3 5 0 8 7 5 21 -8 80 51 76 76 -5 35 -37 49 -73 34z"/>
<path d="M3508 3643 c6 -2 18 -2 25 0 6 3 1 5 -13 5 -14 0 -19 -2 -12 -5z"/>
<path d="M3458 3633 c7 -3 16 -2 19 1 4 3 -2 6 -13 5 -11 0 -14 -3 -6 -6z"/>
<path d="M3340 3609 c-30 -11 -90 -36 -132 -55 -76 -36 -77 -37 -89 -88 -21
-83 -18 -195 6 -236 41 -71 176 -106 235 -60 l25 19 25 -31 c20 -23 36 -31 73
-35 28 -3 47 -2 47 4 0 6 30 13 66 16 83 8 141 39 171 92 26 46 30 112 8 141
-9 12 -15 43 -15 84 0 36 -4 70 -8 76 -4 6 -25 9 -48 6 -41 -4 -42 -5 -48 -49
-3 -25 -6 -72 -6 -103 0 -134 -80 -232 -174 -214 -54 10 -69 28 -72 85 -1 27
-8 64 -14 80 -22 51 10 260 42 280 25 16 -36 8 -92 -12z"/>
<path d="M3592 3558 c16 -16 34 -28 41 -28 6 0 3 6 -8 12 -11 6 -29 18 -40 27
-12 9 -8 4 7 -11z"/>
<path d="M4556 3198 c-13 -315 -15 -418 -7 -343 10 84 25 495 19 495 -3 0 -8
-69 -12 -152z"/>
<path d="M2421 3028 c0 -7 4 -21 8 -32 7 -17 8 -17 24 -2 9 9 14 23 11 31 -7
18 -44 20 -43 3z m29 -8 c0 -5 -2 -10 -4 -10 -3 0 -8 5 -11 10 -3 6 -1 10 4
10 6 0 11 -4 11 -10z"/>
<path d="M4962 2954 c-7 -13 -13 -14 -31 -4 -18 9 -27 8 -47 -5 -39 -26 -28
-67 21 -77 11 -2 21 -12 23 -23 7 -50 13 -65 27 -65 23 0 28 -20 9 -41 -16
-18 -16 -19 4 -19 27 0 73 40 97 84 18 33 18 36 2 54 -9 10 -17 35 -17 55 0
26 -6 39 -19 47 -29 15 -59 12 -69 -6z"/>
<path d="M2480 2936 c-7 -9 -17 -13 -23 -9 -5 3 -16 -2 -24 -12 -13 -18 -14
-18 -17 7 -1 14 -53 21 -60 9 -3 -4 10 -15 29 -24 19 -9 35 -23 35 -31 0 -21
29 -41 41 -29 8 8 6 21 -6 44 -10 20 -12 29 -4 22 10 -10 16 -9 31 4 11 10 18
11 18 5 0 -7 -5 -12 -11 -12 -7 0 -4 -11 6 -27 14 -21 15 -25 3 -20 -10 3 -20
-4 -28 -18 -7 -14 -17 -22 -22 -19 -5 4 0 -13 12 -36 l21 -41 36 35 c35 34 36
35 19 60 -9 14 -12 26 -7 26 5 0 13 -9 16 -20 6 -18 25 -29 25 -15 0 11 -44
65 -52 65 -5 0 -6 -5 -2 -12 4 -7 3 -8 -5 -4 -6 4 -9 15 -7 24 3 10 2 23 -3
30 -6 10 -10 10 -21 -2z m-35 -45 c3 -5 1 -12 -5 -16 -5 -3 -10 1 -10 9 0 18
6 21 15 7z m73 -53 c-3 -7 -11 -13 -18 -13 -7 0 -15 -5 -17 -12 -4 -12 24 -11
50 2 6 4 1 -3 -12 -15 -22 -19 -26 -19 -39 -6 -13 12 -13 18 -3 30 8 9 17 13
22 10 5 -3 9 0 9 5 0 6 3 11 6 11 3 0 4 -6 2 -12z"/>
<path d="M2471 2884 c0 -11 3 -14 6 -6 3 7 2 16 -1 19 -3 4 -6 -2 -5 -13z"/>
<path d="M3324 2862 c3 -9 28 -127 56 -262 28 -135 54 -254 57 -265 6 -17 111
467 113 515 0 12 -14 15 -67 15 -38 0 -90 3 -116 7 -43 7 -48 6 -43 -10z"/>
<path d="M4900 2698 c-16 -7 -20 -12 -12 -15 8 -3 21 2 30 11 19 18 17 19 -18
4z"/>
<path d="M3778 2383 c-115 -219 -163 -320 -155 -325 12 -8 347 -11 347 -4 0 2
-29 33 -65 69 -78 78 -85 105 -14 48 29 -23 57 -41 63 -41 6 0 -2 11 -19 23
-16 12 -46 37 -65 55 l-35 34 60 -33 c67 -36 67 -36 7 15 -54 44 -43 47 22 5
27 -16 50 -28 53 -26 2 3 -18 17 -44 33 -72 42 -36 40 78 -5 57 -22 104 -39
106 -37 2 2 -4 19 -12 39 -20 49 -7 47 29 -4 28 -41 29 -41 45 -21 64 80 292
384 297 395 2 7 -6 18 -18 25 -18 9 -461 72 -503 72 -5 0 -85 -143 -177 -317z"/>
<path d="M4531 2591 c0 -13 -10 -243 -21 -510 -11 -267 -23 -500 -25 -518 -12
-67 80 -63 -1292 -63 l-1243 0 0 236 c0 224 -1 238 -22 275 -36 64 -58 69
-290 69 -229 0 -255 -6 -290 -71 -17 -31 -18 -68 -18 -502 0 -506 -1 -495 55
-547 26 -25 28 -25 244 -28 213 -3 217 -3 251 20 61 41 65 58 68 312 l3 229
722 -5 c397 -2 962 -2 1256 1 l534 6 18 25 c16 22 20 81 39 542 12 284 20 525
17 535 -4 13 -5 12 -6 -6z m-2649 -551 c48 -37 49 -45 46 -548 l-3 -472 -33
-32 -32 -33 -213 -3 c-209 -3 -213 -3 -247 20 -20 14 -40 38 -47 58 -8 25 -12
162 -12 478 -1 481 0 487 54 530 26 21 37 22 245 22 201 0 219 -1 242 -20z"/>
<path d="M1385 1857 c-3 -6 -4 -176 -3 -377 l3 -365 244 -3 c135 -1 248 1 252
5 5 5 -104 7 -241 5 l-250 -3 0 371 0 371 249 -3 c137 -2 247 0 244 5 -2 4
-114 7 -249 7 -187 0 -246 -3 -249 -13z"/>
<path d="M1750 1655 c0 -8 5 -15 11 -15 5 0 7 6 3 13 -5 8 -2 8 9 -2 15 -12
17 -11 17 3 0 9 -8 16 -20 16 -11 0 -20 -7 -20 -15z"/>
<path d="M1813 1655 c0 -9 10 -15 24 -15 14 0 23 6 23 15 0 9 -9 15 -23 15
-14 0 -24 -6 -24 -15z"/>
<path d="M1654 1499 c-11 -12 -26 -18 -37 -15 -17 4 -17 3 -4 -17 22 -33 33
-31 50 13 18 46 17 48 -9 19z"/>
<path d="M5074 2555 c8 -22 17 -62 22 -90 4 -27 18 -67 32 -87 23 -36 24 -39
8 -63 -12 -19 -16 -43 -14 -91 l3 -66 78 75 c42 42 77 83 77 93 0 17 -64 98
-165 209 l-54 60 13 -40z"/>
<path d="M5020 2530 c0 -22 -64 -48 -136 -55 -41 -4 -74 -11 -74 -16 0 -16 59
-39 101 -39 35 0 48 6 80 39 22 21 39 48 39 60 0 11 -2 21 -5 21 -3 0 -5 -5
-5 -10z"/>
<path d="M4965 1973 c-193 -17 -181 -13 -189 -75 -11 -101 -17 -544 -9 -716 8
-169 7 -174 -13 -193 -12 -11 -38 -24 -58 -30 -73 -20 -35 -29 124 -29 l160 0
-1 53 c-1 28 6 133 15 232 37 393 64 589 92 653 19 44 34 111 25 115 -3 2 -69
-2 -146 -10z m-53 -928 c2 -11 14 -22 28 -26 25 -7 25 -7 -3 -8 -16 -1 -40
-10 -54 -21 -22 -17 -27 -18 -37 -6 -6 8 -22 17 -36 19 -25 4 -25 4 2 6 35 1
42 17 57 116 19 123 25 128 33 30 4 -49 9 -99 10 -110z"/>
<path d="M2390 1875 c0 -8 -8 -15 -17 -16 -13 0 -14 -2 -4 -6 11 -5 11 -7 0
-14 -11 -7 -10 -9 4 -9 9 0 17 -7 17 -15 0 -8 5 -15 10 -15 6 0 13 7 16 15 4
8 15 15 25 15 24 0 25 18 2 27 -10 4 -22 12 -26 20 -11 18 -27 17 -27 -2z"/>
<path d="M2986 1288 l7 -138 -133 0 c-100 0 -140 -4 -166 -16 -37 -18 -74 -69
-74 -103 l0 -21 620 0 620 0 0 23 c0 35 -38 87 -75 103 -28 11 -102 14 -379
14 -190 0 -347 4 -350 9 -10 16 23 107 48 130 33 31 119 58 225 72 131 17 131
17 131 42 l0 22 -241 0 -240 0 7 -137z"/>
</g>
</svg>
